# xmcd
#
# Track frame offsets: 
#        150
#        24681
#        39491
#        64365
#        83080
#        98935
#        122360
#        150285
#        161910
#        177252
#        196125
#        211407
#        227917
#        244540
#        283435
#        295627
#
# Disc length: 4171 seconds
#
# Revision: 5
# Processed by: cddbd v1.5.2PL0 Copyright (c) Steve Scherf et al.
# Submitted via: ExactAudioCopy v0.99pb3
#
DISCID=dc104910
DTITLE=B. B. King - Classic
DYEAR=2000
DGENRE=Blues
TTITLE0=The Thrill Is Gone
TTITLE1=Ain't Nobody Home
TTITLE2=Let The Good Times Roll (feat. Bobby Bland)
TTITLE3=Guess Who
TTITLE4=I lLke To Live The Love
TTITLE5=Don't Answer The Door
TTITLE6=Sweet Sixteen
TTITLE7=Paying The Cost To Be The Boss
TTITLE8=I Got Some Help I Don't Need
TTITLE9=Into The Night
TTITLE10=In The Midnight Hour
TTITLE11=My Guitar Sings The Blues
TTITLE12=My Lucille
TTITLE13=Why I Sing The Blues
TTITLE14=How Blue Can You Get
TTITLE15=To Know You Is To Love You
EXTD=YEAR: 2000
EXTT0=
EXTT1=
EXTT2=
EXTT3=
EXTT4=
EXTT5=
EXTT6=
EXTT7=
EXTT8=
EXTT9=
EXTT10=
EXTT11=
EXTT12=
EXTT13=
EXTT14=
EXTT15=
PLAYORDER=
